<svg xmlns="http://www.w3.org/2000/svg" width="960" height="187.48076923076923" viewBox="0 0 960 187.48076923076923" fill="none">
<style>
  .mono { font-family: ui-monospace, SFMono-Regular, "SF Mono", Menlo, Consolas, "Liberation Mono", monospace; }
  .sans { font-family: -apple-system, BlinkMacSystemFont, "Segoe UI", "Noto Sans", Helvetica, Arial, sans-serif; }
  .ink { fill: #1f2328; } .soft { fill: #57606a; } .muted { fill: #8c959f; }
  .col { opacity: 0; animation: in .6s ease-out forwards; }
  @keyframes in { to { opacity: 1; } }
  @media (prefers-reduced-motion: reduce) { * { animation: none !important; } }
</style>
<text x="0.0" y="14" class="mono muted" font-size="12" letter-spacing="1">OCT</text><text x="72.85" y="14" class="mono muted" font-size="12" letter-spacing="1">NOV</text><text x="163.9" y="14" class="mono muted" font-size="12" letter-spacing="1">DEC</text><text x="236.75" y="14" class="mono muted" font-size="12" letter-spacing="1">JAN</text><text x="309.6" y="14" class="mono muted" font-size="12" letter-spacing="1">FEB</text><text x="382.44" y="14" class="mono muted" font-size="12" letter-spacing="1">MAR</text><text x="473.5" y="14" class="mono muted" font-size="12" letter-spacing="1">APR</text><text x="546.35" y="14" class="mono muted" font-size="12" letter-spacing="1">MAY</text><text x="637.4" y="14" class="mono muted" font-size="12" letter-spacing="1">JUN</text><text x="710.25" y="14" class="mono muted" font-size="12" letter-spacing="1">JUL</text><text x="783.1" y="14" class="mono muted" font-size="12" letter-spacing="1">AUG</text><text x="874.15" y="14" class="mono muted" font-size="12" letter-spacing="1">SEP</text>
<g class="col" style="animation-delay:0ms"><rect x="0.0" y="30.0" width="13" height="13" rx="3" fill="#eaeef2"><title>0 on 2025-10-05</title></rect><rect x="0.0" y="48.21153846153846" width="13" height="13" rx="3" fill="#eaeef2"><title>0 on 2025-10-06</title></rect><rect x="0.0" y="66.42307692307692" width="13" height="13" rx="3" fill="#eaeef2"><title>0 on 2025-10-07</title></rect><rect x="0.0" y="84.63461538461539" width="13" height="13" rx="3" fill="#eaeef2"><title>0 on 2025-10-08</title></rect><rect x="0.0" y="102.84615384615384" width="13" height="13" rx="3" fill="#eaeef2"><title>0 on 2025-10-09</title></rect><rect x="0.0" y="121.05769230769229" width="13" height="13" rx="3" fill="#eaeef2"><title>0 on 2025-10-10</title></rect><rect x="0.0" y="139.26923076923077" width="13" height="13" rx="3" fill="#eaeef2"><title>0 on 2025-10-11</title></rect></g><g class="col" style="animation-delay:14ms"><rect x="18.21" y="30.0" width="13" height="13" rx="3" fill="#eaeef2"><title>0 on 2025-10-12</title></rect><rect x="18.21" y="48.21153846153846" width="13" height="13" rx="3" fill="#eaeef2"><title>0 on 2025-10-13</title></rect><rect x="18.21" y="66.42307692307692" width="13" height="13" rx="3" fill="#eaeef2"><title>0 on 2025-10-14</title></rect><rect x="18.21" y="84.63461538461539" width="13" height="13" rx="3" fill="#eaeef2"><title>0 on 2025-10-15</title></rect><rect x="18.21" y="102.84615384615384" width="13" height="13" rx="3" fill="#eaeef2"><title>0 on 2025-10-16</title></rect><rect x="18.21" y="121.05769230769229" width="13" height="13" rx="3" fill="#eaeef2"><title>0 on 2025-10-17</title></rect><rect x="18.21" y="139.26923076923077" width="13" height="13" rx="3" fill="#eaeef2"><title>0 on 2025-10-18</title></rect></g><g class="col" style="animation-delay:28ms"><rect x="36.42" y="30.0" width="13" height="13" rx="3" fill="#eaeef2"><title>0 on 2025-10-19</title></rect><rect x="36.42" y="48.21153846153846" width="13" height="13" rx="3" fill="#eaeef2"><title>0 on 2025-10-20</title></rect><rect x="36.42" y="66.42307692307692" width="13" height="13" rx="3" fill="#eaeef2"><title>0 on 2025-10-21</title></rect><rect x="36.42" y="84.63461538461539" width="13" height="13" rx="3" fill="#eaeef2"><title>0 on 2025-10-22</title></rect><rect x="36.42" y="102.84615384615384" width="13" height="13" rx="3" fill="#eaeef2"><title>0 on 2025-10-23</title></rect><rect x="36.42" y="121.05769230769229" width="13" height="13" rx="3" fill="#eaeef2"><title>0 on 2025-10-24</title></rect><rect x="36.42" y="139.26923076923077" width="13" height="13" rx="3" fill="#eaeef2"><title>0 on 2025-10-25</title></rect></g><g class="col" style="animation-delay:42ms"><rect x="54.63" y="30.0" width="13" height="13" rx="3" fill="#eaeef2"><title>0 on 2025-10-26</title></rect><rect x="54.63" y="48.21153846153846" width="13" height="13" rx="3" fill="#eaeef2"><title>0 on 2025-10-27</title></rect><rect x="54.63" y="66.42307692307692" width="13" height="13" rx="3" fill="#eaeef2"><title>0 on 2025-10-28</title></rect><rect x="54.63" y="84.63461538461539" width="13" height="13" rx="3" fill="#eaeef2"><title>0 on 2025-10-29</title></rect><rect x="54.63" y="102.84615384615384" width="13" height="13" rx="3" fill="#eaeef2"><title>0 on 2025-10-30</title></rect><rect x="54.63" y="121.05769230769229" width="13" height="13" rx="3" fill="#eaeef2"><title>0 on 2025-10-31</title></rect><rect x="54.63" y="139.26923076923077" width="13" height="13" rx="3" fill="#eaeef2"><title>0 on 2025-11-01</title></rect></g><g class="col" style="animation-delay:56ms"><rect x="72.85" y="30.0" width="13" height="13" rx="3" fill="#eaeef2"><title>0 on 2025-11-02</title></rect><rect x="72.85" y="48.21153846153846" width="13" height="13" rx="3" fill="#eaeef2"><title>0 on 2025-11-03</title></rect><rect x="72.85" y="66.42307692307692" width="13" height="13" rx="3" fill="#eaeef2"><title>0 on 2025-11-04</title></rect><rect x="72.85" y="84.63461538461539" width="13" height="13" rx="3" fill="#eaeef2"><title>0 on 2025-11-05</title></rect><rect x="72.85" y="102.84615384615384" width="13" height="13" rx="3" fill="#eaeef2"><title>0 on 2025-11-06</title></rect><rect x="72.85" y="121.05769230769229" width="13" height="13" rx="3" fill="#eaeef2"><title>0 on 2025-11-07</title></rect><rect x="72.85" y="139.26923076923077" width="13" height="13" rx="3" fill="#eaeef2"><title>0 on 2025-11-08</title></rect></g><g class="col" style="animation-delay:70ms"><rect x="91.06" y="30.0" width="13" height="13" rx="3" fill="#eaeef2"><title>0 on 2025-11-09</title></rect><rect x="91.06" y="48.21153846153846" width="13" height="13" rx="3" fill="#eaeef2"><title>0 on 2025-11-10</title></rect><rect x="91.06" y="66.42307692307692" width="13" height="13" rx="3" fill="#eaeef2"><title>0 on 2025-11-11</title></rect><rect x="91.06" y="84.63461538461539" width="13" height="13" rx="3" fill="#eaeef2"><title>0 on 2025-11-12</title></rect><rect x="91.06" y="102.84615384615384" width="13" height="13" rx="3" fill="#eaeef2"><title>0 on 2025-11-13</title></rect><rect x="91.06" y="121.05769230769229" width="13" height="13" rx="3" fill="#eaeef2"><title>0 on 2025-11-14</title></rect><rect x="91.06" y="139.26923076923077" width="13" height="13" rx="3" fill="#eaeef2"><title>0 on 2025-11-15</title></rect></g><g class="col" style="animation-delay:84ms"><rect x="109.27" y="30.0" width="13" height="13" rx="3" fill="#eaeef2"><title>0 on 2025-11-16</title></rect><rect x="109.27" y="48.21153846153846" width="13" height="13" rx="3" fill="#eaeef2"><title>0 on 2025-11-17</title></rect><rect x="109.27" y="66.42307692307692" width="13" height="13" rx="3" fill="#eaeef2"><title>0 on 2025-11-18</title></rect><rect x="109.27" y="84.63461538461539" width="13" height="13" rx="3" fill="#eaeef2"><title>0 on 2025-11-19</title></rect><rect x="109.27" y="102.84615384615384" width="13" height="13" rx="3" fill="#eaeef2"><title>0 on 2025-11-20</title></rect><rect x="109.27" y="121.05769230769229" width="13" height="13" rx="3" fill="#eaeef2"><title>0 on 2025-11-21</title></rect><rect x="109.27" y="139.26923076923077" width="13" height="13" rx="3" fill="#eaeef2"><title>0 on 2025-11-22</title></rect></g><g class="col" style="animation-delay:98ms"><rect x="127.48" y="30.0" width="13" height="13" rx="3" fill="#eaeef2"><title>0 on 2025-11-23</title></rect><rect x="127.48" y="48.21153846153846" width="13" height="13" rx="3" fill="#eaeef2"><title>0 on 2025-11-24</title></rect><rect x="127.48" y="66.42307692307692" width="13" height="13" rx="3" fill="#eaeef2"><title>0 on 2025-11-25</title></rect><rect x="127.48" y="84.63461538461539" width="13" height="13" rx="3" fill="#eaeef2"><title>0 on 2025-11-26</title></rect><rect x="127.48" y="102.84615384615384" width="13" height="13" rx="3" fill="#eaeef2"><title>0 on 2025-11-27</title></rect><rect x="127.48" y="121.05769230769229" width="13" height="13" rx="3" fill="#eaeef2"><title>0 on 2025-11-28</title></rect><rect x="127.48" y="139.26923076923077" width="13" height="13" rx="3" fill="#eaeef2"><title>0 on 2025-11-29</title></rect></g><g class="col" style="animation-delay:112ms"><rect x="145.69" y="30.0" width="13" height="13" rx="3" fill="#eaeef2"><title>0 on 2025-11-30</title></rect><rect x="145.69" y="48.21153846153846" width="13" height="13" rx="3" fill="#eaeef2"><title>0 on 2025-12-01</title></rect><rect x="145.69" y="66.42307692307692" width="13" height="13" rx="3" fill="#eaeef2"><title>0 on 2025-12-02</title></rect><rect x="145.69" y="84.63461538461539" width="13" height="13" rx="3" fill="#eaeef2"><title>0 on 2025-12-03</title></rect><rect x="145.69" y="102.84615384615384" width="13" height="13" rx="3" fill="#eaeef2"><title>0 on 2025-12-04</title></rect><rect x="145.69" y="121.05769230769229" width="13" height="13" rx="3" fill="#eaeef2"><title>0 on 2025-12-05</title></rect><rect x="145.69" y="139.26923076923077" width="13" height="13" rx="3" fill="#eaeef2"><title>0 on 2025-12-06</title></rect></g><g class="col" style="animation-delay:126ms"><rect x="163.9" y="30.0" width="13" height="13" rx="3" fill="#eaeef2"><title>0 on 2025-12-07</title></rect><rect x="163.9" y="48.21153846153846" width="13" height="13" rx="3" fill="#eaeef2"><title>0 on 2025-12-08</title></rect><rect x="163.9" y="66.42307692307692" width="13" height="13" rx="3" fill="#eaeef2"><title>0 on 2025-12-09</title></rect><rect x="163.9" y="84.63461538461539" width="13" height="13" rx="3" fill="#eaeef2"><title>0 on 2025-12-10</title></rect><rect x="163.9" y="102.84615384615384" width="13" height="13" rx="3" fill="#eaeef2"><title>0 on 2025-12-11</title></rect><rect x="163.9" y="121.05769230769229" width="13" height="13" rx="3" fill="#eaeef2"><title>0 on 2025-12-12</title></rect><rect x="163.9" y="139.26923076923077" width="13" height="13" rx="3" fill="#eaeef2"><title>0 on 2025-12-13</title></rect></g><g class="col" style="animation-delay:140ms"><rect x="182.12" y="30.0" width="13" height="13" rx="3" fill="#eaeef2"><title>0 on 2025-12-14</title></rect><rect x="182.12" y="48.21153846153846" width="13" height="13" rx="3" fill="#eaeef2"><title>0 on 2025-12-15</title></rect><rect x="182.12" y="66.42307692307692" width="13" height="13" rx="3" fill="#eaeef2"><title>0 on 2025-12-16</title></rect><rect x="182.12" y="84.63461538461539" width="13" height="13" rx="3" fill="#eaeef2"><title>0 on 2025-12-17</title></rect><rect x="182.12" y="102.84615384615384" width="13" height="13" rx="3" fill="#eaeef2"><title>0 on 2025-12-18</title></rect><rect x="182.12" y="121.05769230769229" width="13" height="13" rx="3" fill="#eaeef2"><title>0 on 2025-12-19</title></rect><rect x="182.12" y="139.26923076923077" width="13" height="13" rx="3" fill="#eaeef2"><title>0 on 2025-12-20</title></rect></g><g class="col" style="animation-delay:154ms"><rect x="200.33" y="30.0" width="13" height="13" rx="3" fill="#eaeef2"><title>0 on 2025-12-21</title></rect><rect x="200.33" y="48.21153846153846" width="13" height="13" rx="3" fill="#eaeef2"><title>0 on 2025-12-22</title></rect><rect x="200.33" y="66.42307692307692" width="13" height="13" rx="3" fill="#eaeef2"><title>0 on 2025-12-23</title></rect><rect x="200.33" y="84.63461538461539" width="13" height="13" rx="3" fill="#eaeef2"><title>0 on 2025-12-24</title></rect><rect x="200.33" y="102.84615384615384" width="13" height="13" rx="3" fill="#eaeef2"><title>0 on 2025-12-25</title></rect><rect x="200.33" y="121.05769230769229" width="13" height="13" rx="3" fill="#eaeef2"><title>0 on 2025-12-26</title></rect><rect x="200.33" y="139.26923076923077" width="13" height="13" rx="3" fill="#eaeef2"><title>0 on 2025-12-27</title></rect></g><g class="col" style="animation-delay:168ms"><rect x="218.54" y="30.0" width="13" height="13" rx="3" fill="#eaeef2"><title>0 on 2025-12-28</title></rect><rect x="218.54" y="48.21153846153846" width="13" height="13" rx="3" fill="#eaeef2"><title>0 on 2025-12-29</title></rect><rect x="218.54" y="66.42307692307692" width="13" height="13" rx="3" fill="#eaeef2"><title>0 on 2025-12-30</title></rect><rect x="218.54" y="84.63461538461539" width="13" height="13" rx="3" fill="#eaeef2"><title>0 on 2025-12-31</title></rect><rect x="218.54" y="102.84615384615384" width="13" height="13" rx="3" fill="#eaeef2"><title>0 on 2026-01-01</title></rect><rect x="218.54" y="121.05769230769229" width="13" height="13" rx="3" fill="#eaeef2"><title>0 on 2026-01-02</title></rect><rect x="218.54" y="139.26923076923077" width="13" height="13" rx="3" fill="#eaeef2"><title>0 on 2026-01-03</title></rect></g><g class="col" style="animation-delay:182ms"><rect x="236.75" y="30.0" width="13" height="13" rx="3" fill="#eaeef2"><title>0 on 2026-01-04</title></rect><rect x="236.75" y="48.21153846153846" width="13" height="13" rx="3" fill="#eaeef2"><title>0 on 2026-01-05</title></rect><rect x="236.75" y="66.42307692307692" width="13" height="13" rx="3" fill="#eaeef2"><title>0 on 2026-01-06</title></rect><rect x="236.75" y="84.63461538461539" width="13" height="13" rx="3" fill="#eaeef2"><title>0 on 2026-01-07</title></rect><rect x="236.75" y="102.84615384615384" width="13" height="13" rx="3" fill="#eaeef2"><title>0 on 2026-01-08</title></rect><rect x="236.75" y="121.05769230769229" width="13" height="13" rx="3" fill="#eaeef2"><title>0 on 2026-01-09</title></rect><rect x="236.75" y="139.26923076923077" width="13" height="13" rx="3" fill="#eaeef2"><title>0 on 2026-01-10</title></rect></g><g class="col" style="animation-delay:196ms"><rect x="254.96" y="30.0" width="13" height="13" rx="3" fill="#eaeef2"><title>0 on 2026-01-11</title></rect><rect x="254.96" y="48.21153846153846" width="13" height="13" rx="3" fill="#eaeef2"><title>0 on 2026-01-12</title></rect><rect x="254.96" y="66.42307692307692" width="13" height="13" rx="3" fill="#eaeef2"><title>0 on 2026-01-13</title></rect><rect x="254.96" y="84.63461538461539" width="13" height="13" rx="3" fill="#eaeef2"><title>0 on 2026-01-14</title></rect><rect x="254.96" y="102.84615384615384" width="13" height="13" rx="3" fill="#eaeef2"><title>0 on 2026-01-15</title></rect><rect x="254.96" y="121.05769230769229" width="13" height="13" rx="3" fill="#eaeef2"><title>0 on 2026-01-16</title></rect><rect x="254.96" y="139.26923076923077" width="13" height="13" rx="3" fill="#eaeef2"><title>0 on 2026-01-17</title></rect></g><g class="col" style="animation-delay:210ms"><rect x="273.17" y="30.0" width="13" height="13" rx="3" fill="#eaeef2"><title>0 on 2026-01-18</title></rect><rect x="273.17" y="48.21153846153846" width="13" height="13" rx="3" fill="#eaeef2"><title>0 on 2026-01-19</title></rect><rect x="273.17" y="66.42307692307692" width="13" height="13" rx="3" fill="#eaeef2"><title>0 on 2026-01-20</title></rect><rect x="273.17" y="84.63461538461539" width="13" height="13" rx="3" fill="#eaeef2"><title>0 on 2026-01-21</title></rect><rect x="273.17" y="102.84615384615384" width="13" height="13" rx="3" fill="#eaeef2"><title>0 on 2026-01-22</title></rect><rect x="273.17" y="121.05769230769229" width="13" height="13" rx="3" fill="#eaeef2"><title>0 on 2026-01-23</title></rect><rect x="273.17" y="139.26923076923077" width="13" height="13" rx="3" fill="#eaeef2"><title>0 on 2026-01-24</title></rect></g><g class="col" style="animation-delay:224ms"><rect x="291.38" y="30.0" width="13" height="13" rx="3" fill="#eaeef2"><title>0 on 2026-01-25</title></rect><rect x="291.38" y="48.21153846153846" width="13" height="13" rx="3" fill="#eaeef2"><title>0 on 2026-01-26</title></rect><rect x="291.38" y="66.42307692307692" width="13" height="13" rx="3" fill="#eaeef2"><title>0 on 2026-01-27</title></rect><rect x="291.38" y="84.63461538461539" width="13" height="13" rx="3" fill="#eaeef2"><title>0 on 2026-01-28</title></rect><rect x="291.38" y="102.84615384615384" width="13" height="13" rx="3" fill="#eaeef2"><title>0 on 2026-01-29</title></rect><rect x="291.38" y="121.05769230769229" width="13" height="13" rx="3" fill="#eaeef2"><title>0 on 2026-01-30</title></rect><rect x="291.38" y="139.26923076923077" width="13" height="13" rx="3" fill="#eaeef2"><title>0 on 2026-01-31</title></rect></g><g class="col" style="animation-delay:238ms"><rect x="309.6" y="30.0" width="13" height="13" rx="3" fill="#eaeef2"><title>0 on 2026-02-01</title></rect><rect x="309.6" y="48.21153846153846" width="13" height="13" rx="3" fill="#eaeef2"><title>0 on 2026-02-02</title></rect><rect x="309.6" y="66.42307692307692" width="13" height="13" rx="3" fill="#eaeef2"><title>0 on 2026-02-03</title></rect><rect x="309.6" y="84.63461538461539" width="13" height="13" rx="3" fill="#eaeef2"><title>0 on 2026-02-04</title></rect><rect x="309.6" y="102.84615384615384" width="13" height="13" rx="3" fill="#eaeef2"><title>0 on 2026-02-05</title></rect><rect x="309.6" y="121.05769230769229" width="13" height="13" rx="3" fill="#eaeef2"><title>0 on 2026-02-06</title></rect><rect x="309.6" y="139.26923076923077" width="13" height="13" rx="3" fill="#eaeef2"><title>0 on 2026-02-07</title></rect></g><g class="col" style="animation-delay:252ms"><rect x="327.81" y="30.0" width="13" height="13" rx="3" fill="#eaeef2"><title>0 on 2026-02-08</title></rect><rect x="327.81" y="48.21153846153846" width="13" height="13" rx="3" fill="#eaeef2"><title>0 on 2026-02-09</title></rect><rect x="327.81" y="66.42307692307692" width="13" height="13" rx="3" fill="#eaeef2"><title>0 on 2026-02-10</title></rect><rect x="327.81" y="84.63461538461539" width="13" height="13" rx="3" fill="#eaeef2"><title>0 on 2026-02-11</title></rect><rect x="327.81" y="102.84615384615384" width="13" height="13" rx="3" fill="#eaeef2"><title>0 on 2026-02-12</title></rect><rect x="327.81" y="121.05769230769229" width="13" height="13" rx="3" fill="#eaeef2"><title>0 on 2026-02-13</title></rect><rect x="327.81" y="139.26923076923077" width="13" height="13" rx="3" fill="#eaeef2"><title>0 on 2026-02-14</title></rect></g><g class="col" style="animation-delay:266ms"><rect x="346.02" y="30.0" width="13" height="13" rx="3" fill="#eaeef2"><title>0 on 2026-02-15</title></rect><rect x="346.02" y="48.21153846153846" width="13" height="13" rx="3" fill="#eaeef2"><title>0 on 2026-02-16</title></rect><rect x="346.02" y="66.42307692307692" width="13" height="13" rx="3" fill="#eaeef2"><title>0 on 2026-02-17</title></rect><rect x="346.02" y="84.63461538461539" width="13" height="13" rx="3" fill="#eaeef2"><title>0 on 2026-02-18</title></rect><rect x="346.02" y="102.84615384615384" width="13" height="13" rx="3" fill="#eaeef2"><title>0 on 2026-02-19</title></rect><rect x="346.02" y="121.05769230769229" width="13" height="13" rx="3" fill="#eaeef2"><title>0 on 2026-02-20</title></rect><rect x="346.02" y="139.26923076923077" width="13" height="13" rx="3" fill="#eaeef2"><title>0 on 2026-02-21</title></rect></g><g class="col" style="animation-delay:280ms"><rect x="364.23" y="30.0" width="13" height="13" rx="3" fill="#eaeef2"><title>0 on 2026-02-22</title></rect><rect x="364.23" y="48.21153846153846" width="13" height="13" rx="3" fill="#eaeef2"><title>0 on 2026-02-23</title></rect><rect x="364.23" y="66.42307692307692" width="13" height="13" rx="3" fill="#eaeef2"><title>0 on 2026-02-24</title></rect><rect x="364.23" y="84.63461538461539" width="13" height="13" rx="3" fill="#eaeef2"><title>0 on 2026-02-25</title></rect><rect x="364.23" y="102.84615384615384" width="13" height="13" rx="3" fill="#eaeef2"><title>0 on 2026-02-26</title></rect><rect x="364.23" y="121.05769230769229" width="13" height="13" rx="3" fill="#eaeef2"><title>0 on 2026-02-27</title></rect><rect x="364.23" y="139.26923076923077" width="13" height="13" rx="3" fill="#eaeef2"><title>0 on 2026-02-28</title></rect></g><g class="col" style="animation-delay:294ms"><rect x="382.44" y="30.0" width="13" height="13" rx="3" fill="#eaeef2"><title>0 on 2026-03-01</title></rect><rect x="382.44" y="48.21153846153846" width="13" height="13" rx="3" fill="#eaeef2"><title>0 on 2026-03-02</title></rect><rect x="382.44" y="66.42307692307692" width="13" height="13" rx="3" fill="#eaeef2"><title>0 on 2026-03-03</title></rect><rect x="382.44" y="84.63461538461539" width="13" height="13" rx="3" fill="#eaeef2"><title>0 on 2026-03-04</title></rect><rect x="382.44" y="102.84615384615384" width="13" height="13" rx="3" fill="#eaeef2"><title>0 on 2026-03-05</title></rect><rect x="382.44" y="121.05769230769229" width="13" height="13" rx="3" fill="#eaeef2"><title>0 on 2026-03-06</title></rect><rect x="382.44" y="139.26923076923077" width="13" height="13" rx="3" fill="#eaeef2"><title>0 on 2026-03-07</title></rect></g><g class="col" style="animation-delay:308ms"><rect x="400.65" y="30.0" width="13" height="13" rx="3" fill="#eaeef2"><title>0 on 2026-03-08</title></rect><rect x="400.65" y="48.21153846153846" width="13" height="13" rx="3" fill="#eaeef2"><title>0 on 2026-03-09</title></rect><rect x="400.65" y="66.42307692307692" width="13" height="13" rx="3" fill="#eaeef2"><title>0 on 2026-03-10</title></rect><rect x="400.65" y="84.63461538461539" width="13" height="13" rx="3" fill="#eaeef2"><title>0 on 2026-03-11</title></rect><rect x="400.65" y="102.84615384615384" width="13" height="13" rx="3" fill="#eaeef2"><title>0 on 2026-03-12</title></rect><rect x="400.65" y="121.05769230769229" width="13" height="13" rx="3" fill="#eaeef2"><title>0 on 2026-03-13</title></rect><rect x="400.65" y="139.26923076923077" width="13" height="13" rx="3" fill="#eaeef2"><title>0 on 2026-03-14</title></rect></g><g class="col" style="animation-delay:322ms"><rect x="418.87" y="30.0" width="13" height="13" rx="3" fill="#eaeef2"><title>0 on 2026-03-15</title></rect><rect x="418.87" y="48.21153846153846" width="13" height="13" rx="3" fill="#eaeef2"><title>0 on 2026-03-16</title></rect><rect x="418.87" y="66.42307692307692" width="13" height="13" rx="3" fill="#eaeef2"><title>0 on 2026-03-17</title></rect><rect x="418.87" y="84.63461538461539" width="13" height="13" rx="3" fill="#eaeef2"><title>0 on 2026-03-18</title></rect><rect x="418.87" y="102.84615384615384" width="13" height="13" rx="3" fill="#eaeef2"><title>0 on 2026-03-19</title></rect><rect x="418.87" y="121.05769230769229" width="13" height="13" rx="3" fill="#eaeef2"><title>0 on 2026-03-20</title></rect><rect x="418.87" y="139.26923076923077" width="13" height="13" rx="3" fill="#eaeef2"><title>0 on 2026-03-21</title></rect></g><g class="col" style="animation-delay:336ms"><rect x="437.08" y="30.0" width="13" height="13" rx="3" fill="#eaeef2"><title>0 on 2026-03-22</title></rect><rect x="437.08" y="48.21153846153846" width="13" height="13" rx="3" fill="#eaeef2"><title>0 on 2026-03-23</title></rect><rect x="437.08" y="66.42307692307692" width="13" height="13" rx="3" fill="#eaeef2"><title>0 on 2026-03-24</title></rect><rect x="437.08" y="84.63461538461539" width="13" height="13" rx="3" fill="#eaeef2"><title>0 on 2026-03-25</title></rect><rect x="437.08" y="102.84615384615384" width="13" height="13" rx="3" fill="#eaeef2"><title>0 on 2026-03-26</title></rect><rect x="437.08" y="121.05769230769229" width="13" height="13" rx="3" fill="#eaeef2"><title>0 on 2026-03-27</title></rect><rect x="437.08" y="139.26923076923077" width="13" height="13" rx="3" fill="#eaeef2"><title>0 on 2026-03-28</title></rect></g><g class="col" style="animation-delay:350ms"><rect x="455.29" y="30.0" width="13" height="13" rx="3" fill="#eaeef2"><title>0 on 2026-03-29</title></rect><rect x="455.29" y="48.21153846153846" width="13" height="13" rx="3" fill="#eaeef2"><title>0 on 2026-03-30</title></rect><rect x="455.29" y="66.42307692307692" width="13" height="13" rx="3" fill="#eaeef2"><title>0 on 2026-03-31</title></rect><rect x="455.29" y="84.63461538461539" width="13" height="13" rx="3" fill="#eaeef2"><title>0 on 2026-04-01</title></rect><rect x="455.29" y="102.84615384615384" width="13" height="13" rx="3" fill="#eaeef2"><title>0 on 2026-04-02</title></rect><rect x="455.29" y="121.05769230769229" width="13" height="13" rx="3" fill="#eaeef2"><title>0 on 2026-04-03</title></rect><rect x="455.29" y="139.26923076923077" width="13" height="13" rx="3" fill="#eaeef2"><title>0 on 2026-04-04</title></rect></g><g class="col" style="animation-delay:364ms"><rect x="473.5" y="30.0" width="13" height="13" rx="3" fill="#eaeef2"><title>0 on 2026-04-05</title></rect><rect x="473.5" y="48.21153846153846" width="13" height="13" rx="3" fill="#eaeef2"><title>0 on 2026-04-06</title></rect><rect x="473.5" y="66.42307692307692" width="13" height="13" rx="3" fill="#eaeef2"><title>0 on 2026-04-07</title></rect><rect x="473.5" y="84.63461538461539" width="13" height="13" rx="3" fill="#eaeef2"><title>0 on 2026-04-08</title></rect><rect x="473.5" y="102.84615384615384" width="13" height="13" rx="3" fill="#eaeef2"><title>0 on 2026-04-09</title></rect><rect x="473.5" y="121.05769230769229" width="13" height="13" rx="3" fill="#eaeef2"><title>0 on 2026-04-10</title></rect><rect x="473.5" y="139.26923076923077" width="13" height="13" rx="3" fill="#eaeef2"><title>0 on 2026-04-11</title></rect></g><g class="col" style="animation-delay:378ms"><rect x="491.71" y="30.0" width="13" height="13" rx="3" fill="#eaeef2"><title>0 on 2026-04-12</title></rect><rect x="491.71" y="48.21153846153846" width="13" height="13" rx="3" fill="#eaeef2"><title>0 on 2026-04-13</title></rect><rect x="491.71" y="66.42307692307692" width="13" height="13" rx="3" fill="#eaeef2"><title>0 on 2026-04-14</title></rect><rect x="491.71" y="84.63461538461539" width="13" height="13" rx="3" fill="#eaeef2"><title>0 on 2026-04-15</title></rect><rect x="491.71" y="102.84615384615384" width="13" height="13" rx="3" fill="#eaeef2"><title>0 on 2026-04-16</title></rect><rect x="491.71" y="121.05769230769229" width="13" height="13" rx="3" fill="#eaeef2"><title>0 on 2026-04-17</title></rect><rect x="491.71" y="139.26923076923077" width="13" height="13" rx="3" fill="#eaeef2"><title>0 on 2026-04-18</title></rect></g><g class="col" style="animation-delay:392ms"><rect x="509.92" y="30.0" width="13" height="13" rx="3" fill="#eaeef2"><title>0 on 2026-04-19</title></rect><rect x="509.92" y="48.21153846153846" width="13" height="13" rx="3" fill="#eaeef2"><title>0 on 2026-04-20</title></rect><rect x="509.92" y="66.42307692307692" width="13" height="13" rx="3" fill="#eaeef2"><title>0 on 2026-04-21</title></rect><rect x="509.92" y="84.63461538461539" width="13" height="13" rx="3" fill="#eaeef2"><title>0 on 2026-04-22</title></rect><rect x="509.92" y="102.84615384615384" width="13" height="13" rx="3" fill="#eaeef2"><title>0 on 2026-04-23</title></rect><rect x="509.92" y="121.05769230769229" width="13" height="13" rx="3" fill="#eaeef2"><title>0 on 2026-04-24</title></rect><rect x="509.92" y="139.26923076923077" width="13" height="13" rx="3" fill="#eaeef2"><title>0 on 2026-04-25</title></rect></g><g class="col" style="animation-delay:406ms"><rect x="528.13" y="30.0" width="13" height="13" rx="3" fill="#eaeef2"><title>0 on 2026-04-26</title></rect><rect x="528.13" y="48.21153846153846" width="13" height="13" rx="3" fill="#eaeef2"><title>0 on 2026-04-27</title></rect><rect x="528.13" y="66.42307692307692" width="13" height="13" rx="3" fill="#eaeef2"><title>0 on 2026-04-28</title></rect><rect x="528.13" y="84.63461538461539" width="13" height="13" rx="3" fill="#eaeef2"><title>0 on 2026-04-29</title></rect><rect x="528.13" y="102.84615384615384" width="13" height="13" rx="3" fill="#eaeef2"><title>0 on 2026-04-30</title></rect><rect x="528.13" y="121.05769230769229" width="13" height="13" rx="3" fill="#eaeef2"><title>0 on 2026-05-01</title></rect><rect x="528.13" y="139.26923076923077" width="13" height="13" rx="3" fill="#eaeef2"><title>0 on 2026-05-02</title></rect></g><g class="col" style="animation-delay:420ms"><rect x="546.35" y="30.0" width="13" height="13" rx="3" fill="#eaeef2"><title>0 on 2026-05-03</title></rect><rect x="546.35" y="48.21153846153846" width="13" height="13" rx="3" fill="#eaeef2"><title>0 on 2026-05-04</title></rect><rect x="546.35" y="66.42307692307692" width="13" height="13" rx="3" fill="#eaeef2"><title>0 on 2026-05-05</title></rect><rect x="546.35" y="84.63461538461539" width="13" height="13" rx="3" fill="#eaeef2"><title>0 on 2026-05-06</title></rect><rect x="546.35" y="102.84615384615384" width="13" height="13" rx="3" fill="#eaeef2"><title>0 on 2026-05-07</title></rect><rect x="546.35" y="121.05769230769229" width="13" height="13" rx="3" fill="#eaeef2"><title>0 on 2026-05-08</title></rect><rect x="546.35" y="139.26923076923077" width="13" height="13" rx="3" fill="#eaeef2"><title>0 on 2026-05-09</title></rect></g><g class="col" style="animation-delay:434ms"><rect x="564.56" y="30.0" width="13" height="13" rx="3" fill="#eaeef2"><title>0 on 2026-05-10</title></rect><rect x="564.56" y="48.21153846153846" width="13" height="13" rx="3" fill="#eaeef2"><title>0 on 2026-05-11</title></rect><rect x="564.56" y="66.42307692307692" width="13" height="13" rx="3" fill="#eaeef2"><title>0 on 2026-05-12</title></rect><rect x="564.56" y="84.63461538461539" width="13" height="13" rx="3" fill="#eaeef2"><title>0 on 2026-05-13</title></rect><rect x="564.56" y="102.84615384615384" width="13" height="13" rx="3" fill="#eaeef2"><title>0 on 2026-05-14</title></rect><rect x="564.56" y="121.05769230769229" width="13" height="13" rx="3" fill="#eaeef2"><title>0 on 2026-05-15</title></rect><rect x="564.56" y="139.26923076923077" width="13" height="13" rx="3" fill="#eaeef2"><title>0 on 2026-05-16</title></rect></g><g class="col" style="animation-delay:448ms"><rect x="582.77" y="30.0" width="13" height="13" rx="3" fill="#eaeef2"><title>0 on 2026-05-17</title></rect><rect x="582.77" y="48.21153846153846" width="13" height="13" rx="3" fill="#eaeef2"><title>0 on 2026-05-18</title></rect><rect x="582.77" y="66.42307692307692" width="13" height="13" rx="3" fill="#eaeef2"><title>0 on 2026-05-19</title></rect><rect x="582.77" y="84.63461538461539" width="13" height="13" rx="3" fill="#eaeef2"><title>0 on 2026-05-20</title></rect><rect x="582.77" y="102.84615384615384" width="13" height="13" rx="3" fill="#eaeef2"><title>0 on 2026-05-21</title></rect><rect x="582.77" y="121.05769230769229" width="13" height="13" rx="3" fill="#eaeef2"><title>0 on 2026-05-22</title></rect><rect x="582.77" y="139.26923076923077" width="13" height="13" rx="3" fill="#eaeef2"><title>0 on 2026-05-23</title></rect></g><g class="col" style="animation-delay:462ms"><rect x="600.98" y="30.0" width="13" height="13" rx="3" fill="#eaeef2"><title>0 on 2026-05-24</title></rect><rect x="600.98" y="48.21153846153846" width="13" height="13" rx="3" fill="#eaeef2"><title>0 on 2026-05-25</title></rect><rect x="600.98" y="66.42307692307692" width="13" height="13" rx="3" fill="#eaeef2"><title>0 on 2026-05-26</title></rect><rect x="600.98" y="84.63461538461539" width="13" height="13" rx="3" fill="#eaeef2"><title>0 on 2026-05-27</title></rect><rect x="600.98" y="102.84615384615384" width="13" height="13" rx="3" fill="#eaeef2"><title>0 on 2026-05-28</title></rect><rect x="600.98" y="121.05769230769229" width="13" height="13" rx="3" fill="#eaeef2"><title>0 on 2026-05-29</title></rect><rect x="600.98" y="139.26923076923077" width="13" height="13" rx="3" fill="#eaeef2"><title>0 on 2026-05-30</title></rect></g><g class="col" style="animation-delay:476ms"><rect x="619.19" y="30.0" width="13" height="13" rx="3" fill="#eaeef2"><title>0 on 2026-05-31</title></rect><rect x="619.19" y="48.21153846153846" width="13" height="13" rx="3" fill="#eaeef2"><title>0 on 2026-06-01</title></rect><rect x="619.19" y="66.42307692307692" width="13" height="13" rx="3" fill="#eaeef2"><title>0 on 2026-06-02</title></rect><rect x="619.19" y="84.63461538461539" width="13" height="13" rx="3" fill="#eaeef2"><title>0 on 2026-06-03</title></rect><rect x="619.19" y="102.84615384615384" width="13" height="13" rx="3" fill="#eaeef2"><title>0 on 2026-06-04</title></rect><rect x="619.19" y="121.05769230769229" width="13" height="13" rx="3" fill="#eaeef2"><title>0 on 2026-06-05</title></rect><rect x="619.19" y="139.26923076923077" width="13" height="13" rx="3" fill="#eaeef2"><title>0 on 2026-06-06</title></rect></g><g class="col" style="animation-delay:490ms"><rect x="637.4" y="30.0" width="13" height="13" rx="3" fill="#eaeef2"><title>0 on 2026-06-07</title></rect><rect x="637.4" y="48.21153846153846" width="13" height="13" rx="3" fill="#eaeef2"><title>0 on 2026-06-08</title></rect><rect x="637.4" y="66.42307692307692" width="13" height="13" rx="3" fill="#eaeef2"><title>0 on 2026-06-09</title></rect><rect x="637.4" y="84.63461538461539" width="13" height="13" rx="3" fill="#eaeef2"><title>0 on 2026-06-10</title></rect><rect x="637.4" y="102.84615384615384" width="13" height="13" rx="3" fill="#eaeef2"><title>0 on 2026-06-11</title></rect><rect x="637.4" y="121.05769230769229" width="13" height="13" rx="3" fill="#eaeef2"><title>0 on 2026-06-12</title></rect><rect x="637.4" y="139.26923076923077" width="13" height="13" rx="3" fill="#eaeef2"><title>0 on 2026-06-13</title></rect></g><g class="col" style="animation-delay:504ms"><rect x="655.62" y="30.0" width="13" height="13" rx="3" fill="#eaeef2"><title>0 on 2026-06-14</title></rect><rect x="655.62" y="48.21153846153846" width="13" height="13" rx="3" fill="#eaeef2"><title>0 on 2026-06-15</title></rect><rect x="655.62" y="66.42307692307692" width="13" height="13" rx="3" fill="#eaeef2"><title>0 on 2026-06-16</title></rect><rect x="655.62" y="84.63461538461539" width="13" height="13" rx="3" fill="#eaeef2"><title>0 on 2026-06-17</title></rect><rect x="655.62" y="102.84615384615384" width="13" height="13" rx="3" fill="#eaeef2"><title>0 on 2026-06-18</title></rect><rect x="655.62" y="121.05769230769229" width="13" height="13" rx="3" fill="#eaeef2"><title>0 on 2026-06-19</title></rect><rect x="655.62" y="139.26923076923077" width="13" height="13" rx="3" fill="#eaeef2"><title>0 on 2026-06-20</title></rect></g><g class="col" style="animation-delay:518ms"><rect x="673.83" y="30.0" width="13" height="13" rx="3" fill="#eaeef2"><title>0 on 2026-06-21</title></rect><rect x="673.83" y="48.21153846153846" width="13" height="13" rx="3" fill="#eaeef2"><title>0 on 2026-06-22</title></rect><rect x="673.83" y="66.42307692307692" width="13" height="13" rx="3" fill="#eaeef2"><title>0 on 2026-06-23</title></rect><rect x="673.83" y="84.63461538461539" width="13" height="13" rx="3" fill="#eaeef2"><title>0 on 2026-06-24</title></rect><rect x="673.83" y="102.84615384615384" width="13" height="13" rx="3" fill="#eaeef2"><title>0 on 2026-06-25</title></rect><rect x="673.83" y="121.05769230769229" width="13" height="13" rx="3" fill="#eaeef2"><title>0 on 2026-06-26</title></rect><rect x="673.83" y="139.26923076923077" width="13" height="13" rx="3" fill="#eaeef2"><title>0 on 2026-06-27</title></rect></g><g class="col" style="animation-delay:532ms"><rect x="692.04" y="30.0" width="13" height="13" rx="3" fill="#eaeef2"><title>0 on 2026-06-28</title></rect><rect x="692.04" y="48.21153846153846" width="13" height="13" rx="3" fill="#eaeef2"><title>0 on 2026-06-29</title></rect><rect x="692.04" y="66.42307692307692" width="13" height="13" rx="3" fill="#eaeef2"><title>0 on 2026-06-30</title></rect><rect x="692.04" y="84.63461538461539" width="13" height="13" rx="3" fill="#eaeef2"><title>0 on 2026-07-01</title></rect><rect x="692.04" y="102.84615384615384" width="13" height="13" rx="3" fill="#eaeef2"><title>0 on 2026-07-02</title></rect><rect x="692.04" y="121.05769230769229" width="13" height="13" rx="3" fill="#eaeef2"><title>0 on 2026-07-03</title></rect><rect x="692.04" y="139.26923076923077" width="13" height="13" rx="3" fill="#eaeef2"><title>0 on 2026-07-04</title></rect></g><g class="col" style="animation-delay:546ms"><rect x="710.25" y="30.0" width="13" height="13" rx="3" fill="#eaeef2"><title>0 on 2026-07-05</title></rect><rect x="710.25" y="48.21153846153846" width="13" height="13" rx="3" fill="#eaeef2"><title>0 on 2026-07-06</title></rect><rect x="710.25" y="66.42307692307692" width="13" height="13" rx="3" fill="#eaeef2"><title>0 on 2026-07-07</title></rect><rect x="710.25" y="84.63461538461539" width="13" height="13" rx="3" fill="#eaeef2"><title>0 on 2026-07-08</title></rect><rect x="710.25" y="102.84615384615384" width="13" height="13" rx="3" fill="#eaeef2"><title>0 on 2026-07-09</title></rect><rect x="710.25" y="121.05769230769229" width="13" height="13" rx="3" fill="#eaeef2"><title>0 on 2026-07-10</title></rect><rect x="710.25" y="139.26923076923077" width="13" height="13" rx="3" fill="#eaeef2"><title>0 on 2026-07-11</title></rect></g><g class="col" style="animation-delay:560ms"><rect x="728.46" y="30.0" width="13" height="13" rx="3" fill="#eaeef2"><title>0 on 2026-07-12</title></rect><rect x="728.46" y="48.21153846153846" width="13" height="13" rx="3" fill="#eaeef2"><title>0 on 2026-07-13</title></rect><rect x="728.46" y="66.42307692307692" width="13" height="13" rx="3" fill="#eaeef2"><title>0 on 2026-07-14</title></rect><rect x="728.46" y="84.63461538461539" width="13" height="13" rx="3" fill="#eaeef2"><title>0 on 2026-07-15</title></rect><rect x="728.46" y="102.84615384615384" width="13" height="13" rx="3" fill="#eaeef2"><title>0 on 2026-07-16</title></rect><rect x="728.46" y="121.05769230769229" width="13" height="13" rx="3" fill="#eaeef2"><title>0 on 2026-07-17</title></rect><rect x="728.46" y="139.26923076923077" width="13" height="13" rx="3" fill="#eaeef2"><title>0 on 2026-07-18</title></rect></g><g class="col" style="animation-delay:574ms"><rect x="746.67" y="30.0" width="13" height="13" rx="3" fill="#eaeef2"><title>0 on 2026-07-19</title></rect><rect x="746.67" y="48.21153846153846" width="13" height="13" rx="3" fill="#eaeef2"><title>0 on 2026-07-20</title></rect><rect x="746.67" y="66.42307692307692" width="13" height="13" rx="3" fill="#eaeef2"><title>0 on 2026-07-21</title></rect><rect x="746.67" y="84.63461538461539" width="13" height="13" rx="3" fill="#eaeef2"><title>0 on 2026-07-22</title></rect><rect x="746.67" y="102.84615384615384" width="13" height="13" rx="3" fill="#eaeef2"><title>0 on 2026-07-23</title></rect><rect x="746.67" y="121.05769230769229" width="13" height="13" rx="3" fill="#eaeef2"><title>0 on 2026-07-24</title></rect><rect x="746.67" y="139.26923076923077" width="13" height="13" rx="3" fill="#eaeef2"><title>0 on 2026-07-25</title></rect></g><g class="col" style="animation-delay:588ms"><rect x="764.88" y="30.0" width="13" height="13" rx="3" fill="#eaeef2"><title>0 on 2026-07-26</title></rect><rect x="764.88" y="48.21153846153846" width="13" height="13" rx="3" fill="#eaeef2"><title>0 on 2026-07-27</title></rect><rect x="764.88" y="66.42307692307692" width="13" height="13" rx="3" fill="#eaeef2"><title>0 on 2026-07-28</title></rect><rect x="764.88" y="84.63461538461539" width="13" height="13" rx="3" fill="#eaeef2"><title>0 on 2026-07-29</title></rect><rect x="764.88" y="102.84615384615384" width="13" height="13" rx="3" fill="#eaeef2"><title>0 on 2026-07-30</title></rect><rect x="764.88" y="121.05769230769229" width="13" height="13" rx="3" fill="#eaeef2"><title>0 on 2026-07-31</title></rect><rect x="764.88" y="139.26923076923077" width="13" height="13" rx="3" fill="#eaeef2"><title>0 on 2026-08-01</title></rect></g><g class="col" style="animation-delay:602ms"><rect x="783.1" y="30.0" width="13" height="13" rx="3" fill="#eaeef2"><title>0 on 2026-08-02</title></rect><rect x="783.1" y="48.21153846153846" width="13" height="13" rx="3" fill="#eaeef2"><title>0 on 2026-08-03</title></rect><rect x="783.1" y="66.42307692307692" width="13" height="13" rx="3" fill="#eaeef2"><title>0 on 2026-08-04</title></rect><rect x="783.1" y="84.63461538461539" width="13" height="13" rx="3" fill="#eaeef2"><title>0 on 2026-08-05</title></rect><rect x="783.1" y="102.84615384615384" width="13" height="13" rx="3" fill="#eaeef2"><title>0 on 2026-08-06</title></rect><rect x="783.1" y="121.05769230769229" width="13" height="13" rx="3" fill="#eaeef2"><title>0 on 2026-08-07</title></rect><rect x="783.1" y="139.26923076923077" width="13" height="13" rx="3" fill="#eaeef2"><title>0 on 2026-08-08</title></rect></g><g class="col" style="animation-delay:616ms"><rect x="801.31" y="30.0" width="13" height="13" rx="3" fill="#eaeef2"><title>0 on 2026-08-09</title></rect><rect x="801.31" y="48.21153846153846" width="13" height="13" rx="3" fill="#eaeef2"><title>0 on 2026-08-10</title></rect><rect x="801.31" y="66.42307692307692" width="13" height="13" rx="3" fill="#eaeef2"><title>0 on 2026-08-11</title></rect><rect x="801.31" y="84.63461538461539" width="13" height="13" rx="3" fill="#eaeef2"><title>0 on 2026-08-12</title></rect><rect x="801.31" y="102.84615384615384" width="13" height="13" rx="3" fill="#eaeef2"><title>0 on 2026-08-13</title></rect><rect x="801.31" y="121.05769230769229" width="13" height="13" rx="3" fill="#eaeef2"><title>0 on 2026-08-14</title></rect><rect x="801.31" y="139.26923076923077" width="13" height="13" rx="3" fill="#eaeef2"><title>0 on 2026-08-15</title></rect></g><g class="col" style="animation-delay:630ms"><rect x="819.52" y="30.0" width="13" height="13" rx="3" fill="#eaeef2"><title>0 on 2026-08-16</title></rect><rect x="819.52" y="48.21153846153846" width="13" height="13" rx="3" fill="#eaeef2"><title>0 on 2026-08-17</title></rect><rect x="819.52" y="66.42307692307692" width="13" height="13" rx="3" fill="#eaeef2"><title>0 on 2026-08-18</title></rect><rect x="819.52" y="84.63461538461539" width="13" height="13" rx="3" fill="#eaeef2"><title>0 on 2026-08-19</title></rect><rect x="819.52" y="102.84615384615384" width="13" height="13" rx="3" fill="#eaeef2"><title>0 on 2026-08-20</title></rect><rect x="819.52" y="121.05769230769229" width="13" height="13" rx="3" fill="#eaeef2"><title>0 on 2026-08-21</title></rect><rect x="819.52" y="139.26923076923077" width="13" height="13" rx="3" fill="#eaeef2"><title>0 on 2026-08-22</title></rect></g><g class="col" style="animation-delay:644ms"><rect x="837.73" y="30.0" width="13" height="13" rx="3" fill="#eaeef2"><title>0 on 2026-08-23</title></rect><rect x="837.73" y="48.21153846153846" width="13" height="13" rx="3" fill="#eaeef2"><title>0 on 2026-08-24</title></rect><rect x="837.73" y="66.42307692307692" width="13" height="13" rx="3" fill="#eaeef2"><title>0 on 2026-08-25</title></rect><rect x="837.73" y="84.63461538461539" width="13" height="13" rx="3" fill="#eaeef2"><title>0 on 2026-08-26</title></rect><rect x="837.73" y="102.84615384615384" width="13" height="13" rx="3" fill="#eaeef2"><title>0 on 2026-08-27</title></rect><rect x="837.73" y="121.05769230769229" width="13" height="13" rx="3" fill="#eaeef2"><title>0 on 2026-08-28</title></rect><rect x="837.73" y="139.26923076923077" width="13" height="13" rx="3" fill="#eaeef2"><title>0 on 2026-08-29</title></rect></g><g class="col" style="animation-delay:658ms"><rect x="855.94" y="30.0" width="13" height="13" rx="3" fill="#eaeef2"><title>0 on 2026-08-30</title></rect><rect x="855.94" y="48.21153846153846" width="13" height="13" rx="3" fill="#eaeef2"><title>0 on 2026-08-31</title></rect><rect x="855.94" y="66.42307692307692" width="13" height="13" rx="3" fill="#eaeef2"><title>0 on 2026-09-01</title></rect><rect x="855.94" y="84.63461538461539" width="13" height="13" rx="3" fill="#eaeef2"><title>0 on 2026-09-02</title></rect><rect x="855.94" y="102.84615384615384" width="13" height="13" rx="3" fill="#eaeef2"><title>0 on 2026-09-03</title></rect><rect x="855.94" y="121.05769230769229" width="13" height="13" rx="3" fill="#eaeef2"><title>0 on 2026-09-04</title></rect><rect x="855.94" y="139.26923076923077" width="13" height="13" rx="3" fill="#eaeef2"><title>0 on 2026-09-05</title></rect></g><g class="col" style="animation-delay:672ms"><rect x="874.15" y="30.0" width="13" height="13" rx="3" fill="#eaeef2"><title>0 on 2026-09-06</title></rect><rect x="874.15" y="48.21153846153846" width="13" height="13" rx="3" fill="#eaeef2"><title>0 on 2026-09-07</title></rect><rect x="874.15" y="66.42307692307692" width="13" height="13" rx="3" fill="#eaeef2"><title>0 on 2026-09-08</title></rect><rect x="874.15" y="84.63461538461539" width="13" height="13" rx="3" fill="#eaeef2"><title>0 on 2026-09-09</title></rect><rect x="874.15" y="102.84615384615384" width="13" height="13" rx="3" fill="#eaeef2"><title>0 on 2026-09-10</title></rect><rect x="874.15" y="121.05769230769229" width="13" height="13" rx="3" fill="#eaeef2"><title>0 on 2026-09-11</title></rect><rect x="874.15" y="139.26923076923077" width="13" height="13" rx="3" fill="#eaeef2"><title>0 on 2026-09-12</title></rect></g><g class="col" style="animation-delay:686ms"><rect x="892.37" y="30.0" width="13" height="13" rx="3" fill="#eaeef2"><title>0 on 2026-09-13</title></rect><rect x="892.37" y="48.21153846153846" width="13" height="13" rx="3" fill="#eaeef2"><title>0 on 2026-09-14</title></rect><rect x="892.37" y="66.42307692307692" width="13" height="13" rx="3" fill="#eaeef2"><title>0 on 2026-09-15</title></rect><rect x="892.37" y="84.63461538461539" width="13" height="13" rx="3" fill="#eaeef2"><title>0 on 2026-09-16</title></rect><rect x="892.37" y="102.84615384615384" width="13" height="13" rx="3" fill="#eaeef2"><title>0 on 2026-09-17</title></rect><rect x="892.37" y="121.05769230769229" width="13" height="13" rx="3" fill="#eaeef2"><title>0 on 2026-09-18</title></rect><rect x="892.37" y="139.26923076923077" width="13" height="13" rx="3" fill="#eaeef2"><title>0 on 2026-09-19</title></rect></g><g class="col" style="animation-delay:700ms"><rect x="910.58" y="30.0" width="13" height="13" rx="3" fill="#eaeef2"><title>0 on 2026-09-20</title></rect><rect x="910.58" y="48.21153846153846" width="13" height="13" rx="3" fill="#eaeef2"><title>0 on 2026-09-21</title></rect><rect x="910.58" y="66.42307692307692" width="13" height="13" rx="3" fill="#eaeef2"><title>0 on 2026-09-22</title></rect><rect x="910.58" y="84.63461538461539" width="13" height="13" rx="3" fill="#eaeef2"><title>0 on 2026-09-23</title></rect><rect x="910.58" y="102.84615384615384" width="13" height="13" rx="3" fill="#eaeef2"><title>0 on 2026-09-24</title></rect><rect x="910.58" y="121.05769230769229" width="13" height="13" rx="3" fill="#eaeef2"><title>0 on 2026-09-25</title></rect><rect x="910.58" y="139.26923076923077" width="13" height="13" rx="3" fill="#eaeef2"><title>0 on 2026-09-26</title></rect></g><g class="col" style="animation-delay:714ms"><rect x="928.79" y="30.0" width="13" height="13" rx="3" fill="#eaeef2"><title>0 on 2026-09-27</title></rect><rect x="928.79" y="48.21153846153846" width="13" height="13" rx="3" fill="#eaeef2"><title>0 on 2026-09-28</title></rect><rect x="928.79" y="66.42307692307692" width="13" height="13" rx="3" fill="#eaeef2"><title>0 on 2026-09-29</title></rect><rect x="928.79" y="84.63461538461539" width="13" height="13" rx="3" fill="#eaeef2"><title>0 on 2026-09-30</title></rect><rect x="928.79" y="102.84615384615384" width="13" height="13" rx="3" fill="#eaeef2"><title>0 on 2026-10-01</title></rect><rect x="928.79" y="121.05769230769229" width="13" height="13" rx="3" fill="#eaeef2"><title>0 on 2026-10-02</title></rect><rect x="928.79" y="139.26923076923077" width="13" height="13" rx="3" fill="#eaeef2"><title>0 on 2026-10-03</title></rect></g><g class="col" style="animation-delay:728ms"><rect x="947.0" y="30.0" width="13" height="13" rx="3" fill="#eaeef2"><title>0 on 2026-10-04</title></rect><rect x="947.0" y="48.21153846153846" width="13" height="13" rx="3" fill="#eaeef2"><title>0 on 2026-10-05</title></rect><rect x="947.0" y="66.42307692307692" width="13" height="13" rx="3" fill="#eaeef2"><title>0 on 2026-10-06</title></rect><rect x="947.0" y="84.63461538461539" width="13" height="13" rx="3" fill="#eaeef2"><title>0 on 2026-10-07</title></rect></g>
<text x="0" y="179.48076923076923" class="mono soft" font-size="13" letter-spacing="1">0 CONTRIBUTIONS · PAST YEAR</text>
<text x="861" y="179.48076923076923" text-anchor="end" class="mono muted" font-size="12" letter-spacing="1">LESS</text>
<rect x="875" y="168.48076923076923" width="13" height="13" rx="3" fill="#eaeef2"/><rect x="893" y="168.48076923076923" width="13" height="13" rx="3" fill="#1f2328" fill-opacity="0.28"/><rect x="911" y="168.48076923076923" width="13" height="13" rx="3" fill="#1f2328" fill-opacity="0.5"/><rect x="929" y="168.48076923076923" width="13" height="13" rx="3" fill="#1f2328" fill-opacity="0.74"/><rect x="947" y="168.48076923076923" width="13" height="13" rx="3" fill="#1f2328" fill-opacity="1"/>
</svg>
